<svg width="26" height="28" viewBox="0 0 26 28" fill="none" xmlns="http://www.w3.org/2000/svg">
<path d="M10.4474 25.7001C10.6757 26.0953 11.0039 26.4235 11.3991 26.6517C11.7943 26.8799 12.2427 27 12.699 27C13.1554 27 13.6038 26.8799 13.999 26.6517C14.3942 26.4235 14.7224 26.0953 14.9507 25.7001M1.33965 18.3239C1.16982 18.51 1.05775 18.7415 1.01706 18.9902C0.976374 19.2388 1.00883 19.4939 1.11047 19.7245C1.21211 19.9551 1.37857 20.1511 1.58958 20.2888C1.8006 20.4265 2.04708 20.4999 2.29905 20.5001H23.0991C23.351 20.5002 23.5975 20.4271 23.8087 20.2896C24.0198 20.1522 24.1865 19.9564 24.2884 19.726C24.3903 19.4955 24.4231 19.2405 24.3827 18.9918C24.3424 18.7431 24.2306 18.5115 24.0611 18.3252C22.3321 16.5429 20.4991 14.6488 20.4991 8.80003C20.4991 6.73134 19.6773 4.74737 18.2145 3.28458C16.7517 1.82179 14.7677 1 12.699 1C10.6304 1 8.6464 1.82179 7.18362 3.28458C5.72083 4.74737 4.89905 6.73134 4.89905 8.80003C4.89905 14.6488 3.06475 16.5429 1.33965 18.3239Z" stroke="#656363" stroke-width="2" stroke-linecap="round" stroke-linejoin="round"/>
</svg>
