<svg width="26" height="25" viewBox="0 0 26 25" fill="none" xmlns="http://www.w3.org/2000/svg">
<path d="M17.7273 0H20.0909V1.13636H17.7273V0ZM24.8182 4.54545V3.40909H21.2727V1.13636H20.0909V6.81818H17.7273V1.13636H16.5455V3.40909H9.45455V1.13636H8.27273V6.81818H5.90909V1.13636H4.72727V3.40909H1.18182V4.54545H0V23.8636H1.18182V25H24.8182V23.8636H26V4.54545H24.8182ZM1.18182 5.68182H2.36364V4.54545H4.72727V6.81818H1.18182V5.68182ZM5.90909 23.8636H2.36364V22.7273H1.18182V19.3182H5.90909V23.8636ZM5.90909 18.1818H1.18182V13.6364H5.90909V18.1818ZM5.90909 12.5H1.18182V7.95455H5.90909V12.5ZM18.9091 7.95455V12.5H14.1818V7.95455H18.9091ZM18.9091 18.1818H14.1818V13.6364H18.9091V18.1818ZM9.45455 4.54545H16.5455V6.81818H9.45455V4.54545ZM11.8182 23.8636H7.09091V19.3182H11.8182V23.8636ZM11.8182 18.1818H7.09091V13.6364H11.8182V18.1818ZM11.8182 12.5H7.09091V7.95455H11.8182V12.5ZM14.1818 23.8636V19.3182H18.9091V23.8636H14.1818ZM24.8182 22.7273H23.6364V23.8636H20.0909V19.3182H24.8182V22.7273ZM24.8182 18.1818H20.0909V13.6364H24.8182V18.1818ZM24.8182 12.5H20.0909V7.95455H24.8182V12.5ZM24.8182 6.81818H21.2727V4.54545H23.6364V5.68182H24.8182V6.81818ZM5.90909 0H8.27273V1.13636H5.90909V0Z" fill="#636262"/>
</svg>
