<svg width="27" height="27" viewBox="0 0 27 27" fill="none" xmlns="http://www.w3.org/2000/svg">
<path d="M13.0955 20.3337C16.7665 20.3337 19.7414 17.3581 19.7414 13.6878C19.7414 10.0175 16.7665 7.04199 13.0955 7.04199C9.42462 7.04199 6.44971 10.0169 6.44971 13.6878C6.44971 17.3587 9.42523 20.3337 13.0955 20.3337Z" stroke="white" stroke-width="2" stroke-linejoin="round"/>
<path d="M22.1218 4.41699L20.6356 5.9117L22.1218 4.41699ZM5.26982 21.1736L4.03369 22.4175L5.26982 21.1736ZM13.0835 23.9576V25.7701V23.9576ZM25.1668 13.0832H22.7502H25.1668ZM21.2591 20.9264L22.7502 22.4175L21.2591 20.9264Z" fill="white"/>
<path d="M22.1218 4.41699L20.6356 5.9117M5.26982 21.1736L4.03369 22.4175M13.0835 23.9576V25.7701M25.1668 13.0832H22.7502M21.2591 20.9264L22.7502 22.4175" stroke="white" stroke-width="2" stroke-linecap="round"/>
<mask id="path-4-inside-1_7_487" fill="white">
<path fill-rule="evenodd" clip-rule="evenodd" d="M13.0954 9.45801C12.54 9.45801 11.9901 9.5674 11.4769 9.77993C10.9638 9.99247 10.4976 10.304 10.1049 10.6967C9.71219 11.0894 9.40067 11.5556 9.18814 12.0687C8.9756 12.5818 8.86621 13.1318 8.86621 13.6872C8.86621 14.2426 8.9756 14.7925 9.18814 15.3056C9.40067 15.8187 9.71219 16.2849 10.1049 16.6776C10.4976 17.0704 10.9638 17.3819 11.4769 17.5944C11.9901 17.807 12.54 17.9163 13.0954 17.9163"/>
</mask>
<path fill-rule="evenodd" clip-rule="evenodd" d="M13.0954 9.45801C12.54 9.45801 11.9901 9.5674 11.4769 9.77993C10.9638 9.99247 10.4976 10.304 10.1049 10.6967C9.71219 11.0894 9.40067 11.5556 9.18814 12.0687C8.9756 12.5818 8.86621 13.1318 8.86621 13.6872C8.86621 14.2426 8.9756 14.7925 9.18814 15.3056C9.40067 15.8187 9.71219 16.2849 10.1049 16.6776C10.4976 17.0704 10.9638 17.3819 11.4769 17.5944C11.9901 17.807 12.54 17.9163 13.0954 17.9163" fill="white"/>
<path d="M13.0954 9.45801V7.45801C12.2774 7.45801 11.4673 7.61913 10.7116 7.93217L11.4769 9.77993L12.2423 11.6277C12.5128 11.5157 12.8026 11.458 13.0954 11.458V9.45801ZM11.4769 9.77993L10.7116 7.93217C9.95582 8.24522 9.26912 8.70406 8.69069 9.28249L10.1049 10.6967L11.5191 12.1109C11.7261 11.9039 11.9719 11.7397 12.2423 11.6277L11.4769 9.77993ZM10.1049 10.6967L8.69069 9.28249C8.11226 9.86092 7.65342 10.5476 7.34038 11.3034L9.18814 12.0687L11.0359 12.8341C11.1479 12.5637 11.3121 12.3179 11.5191 12.1109L10.1049 10.6967ZM9.18814 12.0687L7.34038 11.3034C7.02733 12.0591 6.86621 12.8691 6.86621 13.6872H8.86621H10.8662C10.8662 13.3944 10.9239 13.1046 11.0359 12.8341L9.18814 12.0687ZM8.86621 13.6872H6.86621C6.86621 14.5052 7.02733 15.3152 7.34038 16.071L9.18814 15.3056L11.0359 14.5402C10.9239 14.2698 10.8662 13.9799 10.8662 13.6872H8.86621ZM9.18814 15.3056L7.34038 16.071C7.65342 16.8267 8.11226 17.5134 8.69069 18.0919L10.1049 16.6776L11.5191 15.2634C11.3121 15.0564 11.1479 14.8107 11.0359 14.5402L9.18814 15.3056ZM10.1049 16.6776L8.69069 18.0919C9.26912 18.6703 9.95582 19.1291 10.7116 19.4422L11.4769 17.5944L12.2423 15.7467C11.9719 15.6346 11.7261 15.4704 11.5191 15.2634L10.1049 16.6776ZM11.4769 17.5944L10.7116 19.4422C11.4673 19.7552 12.2774 19.9163 13.0954 19.9163V17.9163V15.9163C12.8026 15.9163 12.5128 15.8587 12.2423 15.7467L11.4769 17.5944Z" fill="white" mask="url(#path-4-inside-1_7_487)"/>
<path d="M1 13.6875H3.41667H1ZM4.65158 4.41717L5.89194 5.65752L4.65158 4.41717ZM13.0833 1V3.41667V1Z" fill="white"/>
<path d="M1 13.6875H3.41667M4.65158 4.41717L5.89194 5.65752M13.0833 1V3.41667" stroke="white" stroke-width="2" stroke-linecap="round"/>
</svg>
