<svg width="27" height="27" viewBox="0 0 27 27" fill="none" xmlns="http://www.w3.org/2000/svg">
<mask id="path-1-inside-1_6_50" fill="white">
<path d="M9.5626 19.1118C6.8951 19.1118 4.63419 18.1857 2.77984 16.3334C0.926615 14.4823 0 12.2231 0 9.5559C0 6.8887 0.926615 4.62897 2.77984 2.77671C4.63307 0.92446 6.89399 -0.0011108 9.5626 1.00042e-06C12.2312 0.0011128 14.4916 0.92724 16.3437 2.77838C18.1958 4.62952 19.1224 6.8887 19.1235 9.5559C19.1235 10.7144 18.9183 11.8356 18.5078 12.9196C18.0974 14.0036 17.5578 14.9309 16.8893 15.7014L26.7489 25.5524C26.9046 25.7081 26.9881 25.8999 26.9992 26.1278C27.0092 26.3535 26.9258 26.5553 26.7489 26.7332C26.5709 26.9111 26.374 27 26.1582 27C25.9424 27 25.7455 26.9111 25.5676 26.7332L15.7096 16.8804C14.8753 17.5909 13.9159 18.1406 12.8313 18.5298C11.7468 18.9189 10.6566 19.1135 9.56093 19.1135M9.56093 17.4458C11.7746 17.4458 13.6439 16.6842 15.169 15.161C16.693 13.6379 17.455 11.7695 17.455 9.5559C17.455 7.34231 16.6935 5.47449 15.1707 3.95244C13.6478 2.43039 11.779 1.66881 9.56427 1.6677C7.34951 1.6677 5.48015 2.42928 3.95619 3.95244C2.43222 5.4756 1.66969 7.34342 1.66857 9.5559C1.66746 11.7684 2.42944 13.6362 3.95452 15.1594C5.4796 16.6825 7.3484 17.4441 9.56093 17.4441"/>
</mask>
<path d="M9.5626 19.1118C6.8951 19.1118 4.63419 18.1857 2.77984 16.3334C0.926615 14.4823 0 12.2231 0 9.5559C0 6.8887 0.926615 4.62897 2.77984 2.77671C4.63307 0.92446 6.89399 -0.0011108 9.5626 1.00042e-06C12.2312 0.0011128 14.4916 0.92724 16.3437 2.77838C18.1958 4.62952 19.1224 6.8887 19.1235 9.5559C19.1235 10.7144 18.9183 11.8356 18.5078 12.9196C18.0974 14.0036 17.5578 14.9309 16.8893 15.7014L26.7489 25.5524C26.9046 25.7081 26.9881 25.8999 26.9992 26.1278C27.0092 26.3535 26.9258 26.5553 26.7489 26.7332C26.5709 26.9111 26.374 27 26.1582 27C25.9424 27 25.7455 26.9111 25.5676 26.7332L15.7096 16.8804C14.8753 17.5909 13.9159 18.1406 12.8313 18.5298C11.7468 18.9189 10.6566 19.1135 9.56093 19.1135M9.56093 17.4458C11.7746 17.4458 13.6439 16.6842 15.169 15.161C16.693 13.6379 17.455 11.7695 17.455 9.5559C17.455 7.34231 16.6935 5.47449 15.1707 3.95244C13.6478 2.43039 11.779 1.66881 9.56427 1.6677C7.34951 1.6677 5.48015 2.42928 3.95619 3.95244C2.43222 5.4756 1.66969 7.34342 1.66857 9.5559C1.66746 11.7684 2.42944 13.6362 3.95452 15.1594C5.4796 16.6825 7.3484 17.4441 9.56093 17.4441" fill="#656464"/>
<path d="M2.77984 16.3334L3.48655 15.6259V15.6259L2.77984 16.3334ZM19.1235 9.5559H20.1235V9.55548L19.1235 9.5559ZM16.8893 15.7014L16.134 15.046L15.5231 15.75L16.1825 16.4088L16.8893 15.7014ZM26.7489 25.5524L27.4558 24.8451L27.4557 24.845L26.7489 25.5524ZM26.9992 26.1278L27.9982 26.0835L27.998 26.079L26.9992 26.1278ZM26.7489 26.7332L27.4558 27.4405L27.458 27.4382L26.7489 26.7332ZM25.5676 26.7332L26.2745 26.0259V26.0259L25.5676 26.7332ZM15.7096 16.8804L16.4165 16.1731L15.7639 15.5208L15.0613 16.1191L15.7096 16.8804ZM15.169 15.161L15.8757 15.8686L15.8759 15.8683L15.169 15.161ZM9.56427 1.6677L9.56477 0.667697H9.56427V1.6677ZM9.5626 19.1118V18.1118C7.15485 18.1118 5.14969 17.2872 3.48655 15.6259L2.77984 16.3334L2.07314 17.0409C4.11868 19.0842 6.63536 20.1118 9.5626 20.1118V19.1118ZM2.77984 16.3334L3.48655 15.6259C1.82491 13.9661 1 11.9631 1 9.5559H0H-1C-1 12.4831 0.0283147 14.9984 2.07314 17.0409L2.77984 16.3334ZM0 9.5559H1C1 7.14866 1.82493 5.14497 3.48676 3.48401L2.77984 2.77671L2.07292 2.06942C0.0282981 4.11297 -1 6.62873 -1 9.5559H0ZM2.77984 2.77671L3.48676 3.48401C5.14852 1.82313 7.15334 0.998997 9.56218 1L9.5626 1.00042e-06L9.56301 -0.999999C6.63464 -1.00122 4.11763 0.0257899 2.07292 2.06942L2.77984 2.77671ZM9.5626 1.00042e-06L9.56218 1C11.9715 1.001 13.976 1.82583 15.6368 3.48568L16.3437 2.77838L17.0506 2.07109C15.0071 0.0286528 12.4909 -0.998779 9.56301 -0.999999L9.5626 1.00042e-06ZM16.3437 2.77838L15.6368 3.48568C17.2975 5.1455 18.1225 7.14876 18.1235 9.55632L19.1235 9.5559L20.1235 9.55548C20.1223 6.62864 19.0941 4.11355 17.0506 2.07109L16.3437 2.77838ZM19.1235 9.5559H18.1235C18.1235 10.5933 17.9403 11.5946 17.5726 12.5655L18.5078 12.9196L19.443 13.2738C19.8963 12.0767 20.1235 10.8354 20.1235 9.5559H19.1235ZM18.5078 12.9196L17.5726 12.5655C17.1983 13.5541 16.7155 14.3758 16.134 15.046L16.8893 15.7014L17.6446 16.3567C18.4002 15.486 18.9964 14.4531 19.443 13.2738L18.5078 12.9196ZM16.8893 15.7014L16.1825 16.4088L26.0421 26.2598L26.7489 25.5524L27.4557 24.845L17.5961 14.9939L16.8893 15.7014ZM26.7489 25.5524L26.042 26.2597C26.0358 26.2536 26.0222 26.2371 26.0113 26.2119C26.0006 26.1873 26.0002 26.1723 26.0004 26.1765L26.9992 26.1278L27.998 26.079C27.9753 25.6129 27.7942 25.1833 27.4558 24.8451L26.7489 25.5524ZM26.9992 26.1278L26.0002 26.1721C25.9989 26.1443 26.004 26.1051 26.02 26.0663C26.035 26.03 26.0497 26.0181 26.0398 26.0281L26.7489 26.7332L27.458 27.4382C27.8079 27.0864 28.0221 26.621 27.9982 26.0835L26.9992 26.1278ZM26.7489 26.7332L26.042 26.0259C26.0245 26.0434 26.0281 26.0346 26.0561 26.022C26.0698 26.0158 26.0867 26.0099 26.1059 26.0058C26.125 26.0016 26.1429 26 26.1582 26V27V28C26.6832 28 27.124 27.7722 27.4558 27.4405L26.7489 26.7332ZM26.1582 27V26C26.1735 26 26.1914 26.0016 26.2106 26.0058C26.2298 26.0099 26.2467 26.0158 26.2604 26.022C26.2884 26.0346 26.292 26.0434 26.2745 26.0259L25.5676 26.7332L24.8606 27.4405C25.1925 27.7722 25.6333 28 26.1582 28V27ZM25.5676 26.7332L26.2745 26.0259L16.4165 16.1731L15.7096 16.8804L15.0027 17.5877L24.8606 27.4405L25.5676 26.7332ZM15.7096 16.8804L15.0613 16.1191C14.3235 16.7473 13.4706 17.238 12.4936 17.5885L12.8313 18.5298L13.169 19.471C14.3612 19.0433 15.4272 18.4344 16.358 17.6418L15.7096 16.8804ZM12.8313 18.5298L12.4936 17.5885C11.5118 17.9408 10.5357 18.1135 9.56093 18.1135V19.1135V20.1135C10.7776 20.1135 11.9818 19.897 13.169 19.471L12.8313 18.5298ZM9.56093 17.4458V18.4458C12.0316 18.4458 14.1575 17.5846 15.8757 15.8686L15.169 15.161L14.4623 14.4535C13.1304 15.7838 11.5176 16.4458 9.56093 16.4458V17.4458ZM15.169 15.161L15.8759 15.8683C17.5932 14.1519 18.455 12.0267 18.455 9.5559H17.455H16.455C16.455 11.5123 15.7927 13.1238 14.4621 14.4537L15.169 15.161ZM17.455 9.5559H18.455C18.455 7.08535 17.5939 4.96057 15.8776 3.24515L15.1707 3.95244L14.4638 4.65973C15.7931 5.98841 16.455 7.59927 16.455 9.5559H17.455ZM15.1707 3.95244L15.8776 3.24515C14.1614 1.52988 12.036 0.668938 9.56477 0.667697L9.56427 1.6677L9.56376 2.6677C11.5221 2.66868 13.1342 3.3309 14.4638 4.65973L15.1707 3.95244ZM9.56427 1.6677V0.667697C7.09266 0.667697 4.96653 1.52879 3.24927 3.24515L3.95619 3.95244L4.66311 4.65973C5.99378 3.32976 7.60636 2.6677 9.56427 2.6677V1.6677ZM3.95619 3.95244L3.24927 3.24515C1.53222 4.9613 0.669816 7.08575 0.668574 9.5554L1.66857 9.5559L2.66857 9.5564C2.66956 7.60109 3.33223 5.98991 4.66311 4.65973L3.95619 3.95244ZM1.66857 9.5559L0.668574 9.5554C0.667332 12.0256 1.52935 14.1506 3.24786 15.8669L3.95452 15.1594L4.66118 14.4518C3.32954 13.1218 2.66759 11.5111 2.66857 9.5564L1.66857 9.5559ZM3.95452 15.1594L3.24786 15.8669C4.96592 17.5828 7.09126 18.4441 9.56093 18.4441V17.4441V16.4441C7.60554 16.4441 5.99327 15.7822 4.66118 14.4518L3.95452 15.1594Z" fill="#5E5D5D" mask="url(#path-1-inside-1_6_50)"/>
</svg>
